<?xml version="1.0" standalone="no"?>
<!DOCTYPE svg PUBLIC "-//W3C//DTD SVG 20010904//EN"
 "http://www.w3.org/TR/2001/REC-SVG-20010904/DTD/svg10.dtd">
<svg version="1.0" xmlns="http://www.w3.org/2000/svg"
 width="512.000000pt" height="512.000000pt" viewBox="0 0 512.000000 512.000000"
 preserveAspectRatio="xMidYMid meet">

<g transform="translate(0.000000,512.000000) scale(0.100000,-0.100000)"
fill="#000000" stroke="none">
<path d="M915 4529 c-181 -25 -381 -110 -522 -223 -488 -394 -524 -1116 -77
-1560 105 -104 283 -216 344 -216 89 0 145 85 108 165 -11 24 -47 50 -151 109
-111 63 -248 220 -308 352 -70 155 -93 363 -56 516 90 371 412 628 789 629
148 0 237 -21 373 -89 153 -76 271 -194 360 -360 35 -64 71 -92 119 -92 62 0
116 53 116 113 0 35 -71 170 -129 248 -105 138 -269 267 -419 330 -171 71
-381 101 -547 78z"/>
<path d="M3517 4170 c-128 -22 -262 -125 -318 -244 -17 -36 -33 -66 -36 -66
-3 0 -17 9 -32 19 -109 78 -321 81 -452 7 -81 -46 -177 -160 -194 -228 -4 -16
-10 -28 -13 -28 -4 0 -40 16 -80 36 -213 105 -485 12 -587 -201 -16 -33 -30
-62 -32 -64 -2 -3 -108 99 -236 227 -257 255 -295 282 -427 301 -146 20 -275
-25 -382 -133 -130 -131 -160 -331 -76 -506 28 -60 98 -133 847 -882 448 -450
813 -818 809 -818 -16 0 -909 -142 -958 -152 -126 -26 -242 -100 -315 -201
-85 -116 -121 -269 -91 -387 30 -116 117 -212 231 -251 55 -19 2391 -21 2501
-2 194 34 404 123 554 234 91 67 412 377 546 527 128 144 211 279 269 440 155
434 61 922 -244 1271 -102 118 -792 875 -864 949 -85 87 -152 128 -244 147
-74 16 -104 17 -176 5z m197 -262 c27 -18 414 -439 830 -901 204 -227 281
-366 322 -586 43 -229 4 -484 -105 -687 -67 -123 -115 -180 -370 -434 -311
-311 -402 -375 -636 -447 l-90 -28 -1200 -3 c-660 -1 -1211 0 -1223 3 -45 11
-72 53 -72 110 0 115 74 224 175 259 28 9 322 59 654 112 483 76 609 99 632
115 33 23 53 76 43 115 -4 21 -266 289 -905 929 -629 630 -903 911 -914 937
-55 133 31 284 169 296 106 9 78 32 746 -633 661 -658 642 -642 713 -611 52
22 72 52 72 107 l0 48 -262 263 c-272 273 -302 313 -303 388 0 117 98 220 211
220 78 0 96 -14 364 -279 143 -142 271 -266 285 -275 84 -56 195 32 168 133
-7 25 -50 76 -153 181 -85 85 -150 161 -160 182 -69 167 106 342 273 273 21
-10 97 -75 182 -160 154 -151 184 -170 245 -154 17 5 42 22 58 39 40 44 37 95
-7 153 -52 69 -66 101 -66 157 0 82 39 153 102 186 70 36 165 33 222 -8z"/>
</g>
</svg>
